<svg width="19" height="20" viewBox="0 0 19 20" fill="none" xmlns="http://www.w3.org/2000/svg">
<path fill-rule="evenodd" clip-rule="evenodd" d="M11.4851 15.6191C12.2281 14.133 12.729 11.9799 12.729 9.52372C12.729 6.50381 10.8472 3.73955 9.48903 2.16396C9.4633 2.1341 9.4423 2.12176 9.43032 2.11627C9.41733 2.11032 9.4058 2.10826 9.39563 2.10826C9.38546 2.10826 9.37392 2.11032 9.36094 2.11627C9.34896 2.12176 9.32795 2.1341 9.30222 2.16396C7.94405 3.73955 6.0623 6.50381 6.0623 9.52372C6.0623 11.9799 6.56313 14.133 7.30621 15.6191C8.09201 17.1908 8.91328 17.619 9.39563 17.619C9.87794 17.619 10.6993 17.1908 11.4851 15.6191ZM14.15 9.16145C14.7191 9.03235 15.2808 8.95477 15.8096 8.91208C16.1918 7.50276 16.1335 5.98761 15.9683 4.82781C15.9636 4.79541 15.955 4.78018 15.9516 4.77497C15.9476 4.76879 15.944 4.7658 15.9413 4.76407C15.9385 4.76234 15.9342 4.76033 15.927 4.75937C15.9208 4.75856 15.9033 4.75724 15.872 4.76698C15.1223 5.00054 14.2489 5.34596 13.4205 5.83447C13.2432 5.37977 13.042 4.94301 12.8266 4.52747C13.7544 3.99736 14.6918 3.63835 15.4472 3.40305C16.3534 3.12076 17.2488 3.68676 17.3826 4.62639C17.542 5.74589 17.6329 7.31004 17.2897 8.87237C17.3307 8.87338 17.3711 8.87457 17.411 8.87589C18.3596 8.9074 19.019 9.73648 18.8363 10.6678C18.503 12.3665 17.6751 14.9963 15.6417 16.6135C13.5237 18.2982 11.2049 19.1849 9.50079 19.1115C7.79663 19.1849 5.47784 18.2982 3.35976 16.6135C1.32648 14.9963 0.498531 12.3665 0.16525 10.6678C-0.0174838 9.73648 0.641949 8.9074 1.59054 8.87589C1.63044 8.87457 1.67088 8.87338 1.71184 8.87237C1.36871 7.31004 1.45951 5.74589 1.61894 4.62639C1.75277 3.68676 2.64823 3.12076 3.5544 3.40305C4.26558 3.6246 5.13826 3.95584 6.01236 4.43633C5.79466 4.84909 5.59063 5.28333 5.40973 5.73579C4.63322 5.29902 3.82774 4.98449 3.12951 4.76698C3.09826 4.75724 3.08077 4.75856 3.0746 4.75937C3.06732 4.76033 3.06306 4.76234 3.06032 4.76407C3.05757 4.7658 3.05393 4.76879 3.04994 4.77497C3.04655 4.78018 3.03786 4.79541 3.03325 4.82781C2.86807 5.98761 2.80968 7.50276 3.19197 8.91208C3.65611 8.94956 4.1456 9.0139 4.64317 9.11638C4.79962 5.73196 6.8642 2.80427 8.22018 1.23122C8.85408 0.495843 9.93717 0.495842 10.5711 1.23122C11.9331 2.81124 14.0099 5.75797 14.15 9.16145ZM12.3485 16.9958C13.3132 15.4688 13.9753 13.2103 14.1252 10.6391C15.254 10.3349 16.4198 10.2723 17.3636 10.3037C17.3963 10.3048 17.4123 10.3117 17.4179 10.3146C17.4245 10.3178 17.4278 10.3211 17.4298 10.3237C17.4318 10.3262 17.4343 10.3303 17.436 10.3374C17.4376 10.3434 17.4408 10.3607 17.4344 10.3928C17.1183 12.004 16.3745 14.2053 14.7525 15.4955C13.9371 16.1441 13.1172 16.6407 12.3485 16.9958ZM6.35394 16.8517C5.67347 16.5104 4.95956 16.0607 4.24903 15.4955C2.62704 14.2053 1.88321 12.004 1.5671 10.3928C1.56079 10.3607 1.56399 10.3434 1.56547 10.3374C1.5672 10.3303 1.56967 10.3262 1.57169 10.3237C1.57371 10.3211 1.57707 10.3178 1.58363 10.3146C1.58919 10.3117 1.60527 10.3048 1.63797 10.3037C2.52236 10.2743 3.60174 10.3273 4.66293 10.5845C4.80224 13.0985 5.43081 15.3173 6.35394 16.8517Z" fill="#31775A"/>
</svg>
